<?xml version="1.0" encoding="UTF-8"?><svg id="Layer_2" xmlns="http://www.w3.org/2000/svg" viewBox="0 0 549.99 121.46"><defs><style>.cls-1{fill:#fff;}</style></defs><g id="Layer_1-2"><g><path class="cls-1" d="M384.46,91.05c0,2.1-1.71,3.81-3.81,3.81s-3.81-1.71-3.81-3.81,1.71-3.81,3.81-3.81,3.81,1.71,3.81,3.81"/><g><path class="cls-1" d="M391.22,72.96v-.17c0-12.09,9.44-22.35,21.94-22.35,7.12,0,11.92,2.73,15.73,6.21,.5,.41,.99,1.24,.99,2.24,0,1.74-1.41,3.06-3.06,3.06-.83,0-1.57-.33-2.07-.75-3.06-2.81-6.54-5.13-11.67-5.13-8.69,0-15.32,7.37-15.32,16.56v.17c0,9.27,6.79,16.64,15.73,16.64,4.88,0,8.78-2.24,11.92-5.22,.41-.41,.99-.83,1.82-.83,1.57,0,2.9,1.41,2.9,2.9,0,.74-.33,1.49-.83,1.99-4.06,4.06-8.94,6.87-16.14,6.87-12.5,0-21.94-10.18-21.94-22.19"/><path class="cls-1" d="M433.93,72.96v-.17c0-12.09,9.44-22.35,22.35-22.35s22.27,10.1,22.27,22.19v.17c0,12.09-9.52,22.35-22.43,22.35s-22.19-10.1-22.19-22.19m38.08,0v-.17c0-9.19-6.87-16.72-15.89-16.72s-15.65,7.53-15.65,16.56v.17c0,9.19,6.79,16.64,15.81,16.64s15.73-7.45,15.73-16.47"/><path class="cls-1" d="M485.09,54.46c0-1.74,1.41-3.23,3.15-3.23s3.23,1.41,3.23,3.23v4.39c2.81-4.22,6.62-8.11,13.83-8.11s11.42,3.73,13.74,8.53c3.06-4.72,7.62-8.53,15.07-8.53,9.85,0,15.89,6.62,15.89,17.22v23.68c0,1.82-1.41,3.23-3.15,3.23s-3.23-1.41-3.23-3.23v-22.19c0-8.28-4.14-12.91-11.09-12.91-6.46,0-11.76,4.8-11.76,13.25v21.85c0,1.82-1.41,3.23-3.23,3.23s-3.15-1.41-3.15-3.23v-22.35c0-8.03-4.22-12.75-11.01-12.75s-11.92,5.63-11.92,13.49v21.61c0,1.82-1.32,3.23-3.15,3.23s-3.23-1.41-3.23-3.23V54.46Z"/></g><g><path class="cls-1" d="M121.15,26.73c-2.05-2.01-5.59-1.97-7.6,.08-1,1.03-1.55,2.38-1.54,3.82,.02,1.44,.59,2.78,1.62,3.78,5.8,5.68,9,13.27,9,21.35,0,16.49-13.41,29.9-29.9,29.9s-29.89-13.41-29.89-29.9c0-8.09,3.2-15.67,9-21.35,2.12-2.07,2.15-5.48,.08-7.6-2-2.05-5.55-2.09-7.6-.08-7.88,7.72-12.23,18.03-12.23,29.03,0,22.41,18.23,40.65,40.64,40.65s40.65-18.23,40.65-40.65c0-11-4.34-21.31-12.23-29.04Z"/><path class="cls-1" d="M92.74,53.19c2.96,0,5.37-2.41,5.37-5.37V14.98c0-2.96-2.41-5.37-5.37-5.37s-5.37,2.41-5.37,5.37V47.81c0,2.96,2.41,5.37,5.37,5.37Z"/></g><path class="cls-1" d="M208.03,23.82c-3.09,0-5.6,2.51-5.6,5.6v4.34c-3.57-3.77-7.3-6.6-11.11-8.41-4.57-2.19-9.56-3.3-14.85-3.3-6.36,0-12.48,1.66-18.2,4.94-5.73,3.28-10.28,7.8-13.52,13.43-3.24,5.63-4.88,11.79-4.88,18.3s1.58,12.57,4.7,18.02c3.12,5.45,7.59,9.85,13.3,13.06,5.7,3.21,11.87,4.84,18.35,4.84,5.53,0,10.83-1.17,15.76-3.48,3.95-1.85,7.46-4.38,10.45-7.53v.31c0,7.32-.85,12.65-2.51,15.85-1.64,3.16-4.45,5.83-8.35,7.95-3.94,2.13-8.86,3.22-14.63,3.22s-10.81-1.05-14.73-3.12c-2-1.06-3.83-2.43-5.38-3.99l-3.02-3.63c-1.02-1.59-2.76-2.54-4.65-2.54-3.04,0-5.52,2.48-5.52,5.52,0,1.04,.29,2.04,.88,2.99l.87,1.19c1.23,1.77,2.54,3.31,3.88,4.59,3.04,2.89,7.02,5.22,11.84,6.93,4.78,1.69,10.24,2.55,16.22,2.55,8.19,0,15.32-1.77,21.18-5.26,5.92-3.53,10.14-8.62,12.53-15.14,1.72-4.56,2.59-11.79,2.59-21.49V29.42c0-3.09-2.51-5.6-5.6-5.6Zm-5.21,34.85c0,7.56-2.37,13.73-7.03,18.34-4.67,4.61-10.95,6.95-18.68,6.95s-13.95-2.36-18.72-7.02c-4.77-4.65-7.18-10.63-7.18-17.77,0-4.72,1.17-9.17,3.49-13.22,2.31-4.05,5.54-7.26,9.61-9.56,4.07-2.3,8.55-3.46,13.31-3.46s8.86,1.13,12.8,3.37c3.94,2.23,7.02,5.3,9.16,9.14,2.15,3.85,3.24,8.3,3.24,13.23Z"/><path class="cls-1" d="M288.91,24.03c-3.05,0-5.54,2.48-5.54,5.54v4.76c-3.04-3.56-6.46-6.36-10.23-8.34-4.71-2.47-10.03-3.72-15.82-3.72-10.02,0-18.72,3.65-25.84,10.86-7.12,7.2-10.73,15.99-10.73,26.12s3.58,19.25,10.63,26.47c7.06,7.23,15.7,10.9,25.68,10.9,5.62,0,10.87-1.19,15.6-3.52,3.86-1.9,7.45-4.59,10.7-8.03v4.25c0,3.05,2.48,5.54,5.54,5.54s5.54-2.49,5.54-5.54V29.56c0-3.05-2.48-5.54-5.54-5.54Zm-5.02,35.77c0,4.97-1.12,9.49-3.33,13.43-2.21,3.94-5.4,7.1-9.5,9.41-4.11,2.32-8.52,3.49-13.1,3.49s-8.84-1.18-12.8-3.51c-3.97-2.33-7.17-5.64-9.52-9.83-2.36-4.2-3.55-8.66-3.55-13.24s1.18-9.09,3.52-13.24c2.33-4.15,5.51-7.41,9.45-9.7,3.94-2.29,8.3-3.45,12.96-3.45,7.25,0,13.44,2.56,18.39,7.62,4.96,5.06,7.48,11.46,7.48,19.02Z"/><path class="cls-1" d="M362.74,37.4c-1.97-4.6-5.08-8.31-9.22-11.03-4.15-2.72-8.95-4.1-14.27-4.1s-10.1,1.22-14.53,3.64c-3.56,1.94-6.89,4.69-9.94,8.2l-.04-4.49c0-3.08-2.5-5.58-5.58-5.58s-5.58,2.5-5.58,5.58v59.64c0,3.09,2.51,5.6,5.6,5.6s5.6-2.51,5.6-5.6v-20.7c0-8.88,.42-15.05,1.23-18.33,1.28-4.93,3.95-9.12,7.95-12.47,3.98-3.32,8.54-5,13.55-5,4.36,0,7.92,1.07,10.59,3.17,2.66,2.1,4.48,5.31,5.43,9.56,.62,2.54,.93,7.76,.93,15.51v28.25c0,3.09,2.51,5.6,5.6,5.6s5.6-2.51,5.6-5.6v-30.81c0-9.43-.98-16.51-2.93-21.04Z"/><path class="cls-1" d="M49.47,85.62l-30.86-27.63,28.67-24.99c2.2-1.92,2.43-5.26,.51-7.46-1.84-2.12-5.34-2.36-7.47-.51L11.21,50.4l.02-44.79C11.23,2.52,8.71,0,5.61,0S0,2.52,0,5.62V89.25c0,3.09,2.51,5.6,5.6,5.6s5.6-2.51,5.6-5.6v-23.68l31.21,27.93c.97,.87,2.22,1.35,3.53,1.35,1.51,0,2.94-.64,3.94-1.76,1.95-2.17,1.76-5.52-.41-7.47Z"/></g></g></svg>